<svg viewBox="262 96 166 156" xmlns="http://www.w3.org/2000/svg" role="img" aria-label="Envoir">
  <title>Envoir (monochrome)</title>
  <desc>Single-colour leaning e/at mark; inherits color via currentColor.</desc>
  <g transform="translate(340 170) skewX(-10) translate(-340 -170)"
     fill="none" stroke="currentColor" stroke-width="9" stroke-linecap="round" stroke-linejoin="round">
    <path d="M374 170 A34 34 0 0 0 340 136 A34 34 0 0 0 306 170 A34 34 0 0 0 340 204 A52 34 0 0 0 392 170 A52 58 0 0 0 340 112 A62 58 0 0 0 278 170 A62 66 0 0 0 340 236 A72 66 0 0 0 412 170"/>
    <path d="M306 170 L374 170"/>
  </g>
</svg>
